<?xml version="1.0" encoding="UTF-8"?>
<svg width="370" height="100" version="1.1" viewBox="0 0 97.896 26.458" xmlns="http://www.w3.org/2000/svg">
 <path d="m18.532 8.115a9.283 9.103 0 0 1 1.603 5.114 9.283 9.103 0 0 1-9.283 9.104 9.283 9.103 0 0 1-9.282-9.104 9.283 9.103 0 0 1 9.282-9.103 9.283 9.103 0 0 1 6.586 2.687" fill="none" stroke="#00f" stroke-width="2.065"/>
 <g fill="#7c4000">
  <rect transform="matrix(.6209 .78389 -.72568 .68803 0 0)" x="13.135" y="3.149" width="5.441" height="1.8" rx="1.191" ry="1.604"/>
  <path d="m7.744 17.587c-0.22-0.105-0.475-0.442-0.543-0.72-0.118-0.48-0.375-0.215 5.343-5.51 2.893-2.679 5.327-4.91 5.41-4.959 0.554-0.327 1.386 0.648 1.077 1.264-0.056 0.111-2.135 2.07-5.302 4.996a924.15 924.15 0 0 1-5.338 4.91c-0.15 0.115-0.429 0.123-0.647 0.02z"/>
  <text x="20.252165" y="20.629" font-family="sans-serif" font-size="22.578px" font-weight="400" stroke-width=".26458" style="font-variant-caps:normal;font-variant-east-asian:normal;font-variant-ligatures:normal;font-variant-numeric:normal;line-height:1.25" xml:space="preserve">    <tspan x="20.252165" y="20.629" fill="#7c4000" font-family="sans-serif" font-size="22.578px" font-weight="400" stroke-width=".26458" style="font-variant-caps:normal;font-variant-east-asian:normal;font-variant-ligatures:normal;font-variant-numeric:normal">naxsys</tspan> </text>
 </g>
</svg>
