<svg width="38" height="38" viewBox="0 0 38 38" fill="none" xmlns="http://www.w3.org/2000/svg">
<path fill-rule="evenodd" clip-rule="evenodd" d="M3.03519 24.0641C3.63644 23.2242 3.81505 22.1631 3.67181 21.1392C3.47532 19.7195 3.47532 18.2795 3.67181 16.8598C3.81505 15.8359 3.63644 14.7766 3.03519 13.9349L1.95118 12.4176L1.92288 12.3787C1.45073 11.7191 1.05638 11.1656 0.762828 10.681C0.456898 10.1753 0.212862 9.66776 0.0961486 9.08773C-0.0850634 8.18883 -0.00843368 7.25701 0.317196 6.3998C0.529401 5.84452 0.853015 5.38475 1.23852 4.93558C1.60634 4.50763 2.08734 4.02663 2.6603 3.45368L2.69567 3.41831L3.41893 2.69504L3.4543 2.65967C4.02549 2.08849 4.50825 1.60572 4.93443 1.2379C5.3836 0.852391 5.84515 0.528778 6.39865 0.318341C7.2557 -0.00788042 8.18752 -0.0851236 9.08659 0.0955251C9.66838 0.212238 10.1759 0.456274 10.6817 0.763972C11.1644 1.05575 11.7197 1.45187 12.3793 1.92226L12.4182 1.95055L13.9355 3.03457C14.7772 3.63582 15.8365 3.81443 16.8604 3.67296C18.2801 3.47651 19.7201 3.47651 21.1399 3.67296C22.1655 3.81443 23.223 3.63582 24.0648 3.03457L25.582 1.95055L25.6227 1.92226C26.2805 1.45187 26.8358 1.05575 27.3186 0.763972C27.8243 0.456274 28.3319 0.212238 28.9119 0.0955251C29.8115 -0.0854649 30.744 -0.00821763 31.6016 0.318341C32.1551 0.528778 32.6166 0.852391 33.064 1.2379C33.492 1.60572 33.9747 2.08672 34.5459 2.65967L34.5813 2.69504L35.3063 3.42008L35.3399 3.45368C35.9129 4.02663 36.3939 4.50763 36.7617 4.93558C37.1472 5.38475 37.4708 5.84452 37.6813 6.39803C38.0075 7.25508 38.0847 8.1869 37.9041 9.08596C37.7874 9.66953 37.5433 10.1753 37.2374 10.6828C36.9439 11.1656 36.5477 11.7191 36.0773 12.3787L36.0491 12.4176L34.965 13.9349C34.3638 14.7766 34.1852 15.8359 34.3267 16.8598C34.5232 18.2795 34.5232 19.7195 34.3267 21.1392C34.1852 22.1649 34.3638 23.2224 34.965 24.0641L36.0491 25.5814L36.0773 25.6221C36.5495 26.2817 36.9439 26.8352 37.2374 27.3179C37.5433 27.8237 37.7874 28.3312 37.9041 28.9113C38.0851 29.8109 38.0078 30.7434 37.6813 31.601C37.4708 32.1545 37.1472 32.616 36.7617 33.0652C36.3939 33.4931 35.9129 33.9741 35.3382 34.5471L35.3046 34.5824L34.5813 35.3039L34.5459 35.3393C33.9747 35.9123 33.492 36.3933 33.064 36.7611C32.6166 37.1466 32.1551 37.472 31.6016 37.6806C30.7447 38.0075 29.8129 38.0853 28.9136 37.9052C28.3301 37.7885 27.8243 37.5427 27.3168 37.2368C26.8358 36.945 26.2805 36.5471 25.6227 36.0785L25.582 36.0484L24.0648 34.9662C23.223 34.3649 22.1637 34.1846 21.1399 34.326C19.7201 34.5225 18.2801 34.5225 16.8604 34.326C15.8347 34.1846 14.7772 34.3649 13.9355 34.9662L12.4182 36.0502L12.3775 36.0767C11.7197 36.5489 11.1644 36.9432 10.6817 37.2368C10.1759 37.5427 9.66838 37.7885 9.08836 37.9052C8.18872 38.0862 7.25624 38.009 6.39865 37.6824C5.84515 37.4702 5.3836 37.1466 4.9362 36.7611C4.42514 36.3047 3.93028 35.8305 3.45253 35.3393L3.41716 35.3039L2.69567 34.5807L2.6603 34.5471C2.16917 34.0699 1.69495 33.5756 1.23852 33.0652C0.853015 32.616 0.529401 32.1545 0.318964 31.601C-0.00725693 30.7439 -0.0845001 29.8121 0.0961486 28.913C0.212862 28.3312 0.456898 27.8237 0.762828 27.3179C1.05638 26.8352 1.45249 26.2817 1.92288 25.6203L1.95118 25.5814L3.03519 24.0659V24.0641ZM19.0001 24.3046C20.4071 24.3046 21.7565 23.7457 22.7514 22.7508C23.7463 21.7559 24.3053 20.4065 24.3053 18.9995C24.3053 17.5925 23.7463 16.2431 22.7514 15.2482C21.7565 14.2533 20.4071 13.6944 19.0001 13.6944C17.5931 13.6944 16.2437 14.2533 15.2488 15.2482C14.2539 16.2431 13.695 17.5925 13.695 18.9995C13.695 20.4065 14.2539 21.7559 15.2488 22.7508C16.2437 23.7457 17.5931 24.3046 19.0001 24.3046Z" fill="#23AED2"/>
</svg>
