<svg width="41" height="40" viewBox="0 0 41 40" fill="none" xmlns="http://www.w3.org/2000/svg">
<path fill-rule="evenodd" clip-rule="evenodd" d="M0.564775 2.50268C0.476824 2.661 0.397486 2.82395 0.327107 2.99082C-0.0147696 3.79523 -0.0403646 4.65449 0.0345923 5.55215C0.109549 6.43152 0.301512 7.52114 0.537352 8.85025L0.548321 8.91424L3.19923 23.9275L3.22848 24.0994C3.49723 25.6296 3.67091 26.6095 4.00731 27.4487C4.53944 28.7736 5.39006 29.9469 6.48385 30.8647C7.57764 31.7825 8.88085 32.4164 10.2781 32.7103C11.1648 32.8968 12.1593 32.8968 13.7151 32.8968H13.9711C14.7755 32.8968 15.2929 32.8968 15.7956 32.8383C17.3944 32.6511 18.9098 32.0232 20.1724 31.0247C20.5709 30.7102 20.9348 30.3446 21.5033 29.776L21.5637 29.7175L29.7175 21.56L29.7778 21.5015C30.3446 20.9348 30.7102 20.5691 31.0265 20.1706C32.0234 18.908 32.65 17.3934 32.8364 15.7956C32.8968 15.2911 32.8968 14.7737 32.8968 13.9711V13.7133C32.8968 12.1593 32.8968 11.1648 32.7121 10.2799C32.4181 8.88196 31.7838 7.57812 30.8653 6.48396C29.9469 5.3898 28.7727 4.53912 27.4469 4.00731C26.6095 3.67091 25.6296 3.49723 24.0994 3.22849L23.9294 3.19741L8.91424 0.546493L8.85025 0.537352C7.52114 0.301512 6.43152 0.109549 5.55215 0.0345923C4.65449 -0.0403646 3.7934 -0.0147696 2.99082 0.327107C2.82457 0.39754 2.66223 0.476877 2.50451 0.564775L11.4719 9.53217C11.6066 9.6577 11.7147 9.80908 11.7896 9.97727C11.8646 10.1455 11.9049 10.327 11.9081 10.5111C11.9114 10.6952 11.8775 10.8781 11.8085 11.0489C11.7396 11.2196 11.6369 11.3747 11.5067 11.5049C11.3765 11.6351 11.2214 11.7377 11.0507 11.8067C10.88 11.8757 10.6971 11.9095 10.513 11.9063C10.3289 11.903 10.1473 11.8627 9.9791 11.7878C9.81091 11.7128 9.65953 11.6048 9.534 11.4701L0.564775 2.50451V2.50268ZM20.5581 16.8999C20.5581 17.8696 20.1729 18.7997 19.4872 19.4854C18.8015 20.1711 17.8715 20.5563 16.9017 20.5563C15.932 20.5563 15.0019 20.1711 14.3162 19.4854C13.6305 18.7997 13.2453 17.8696 13.2453 16.8999C13.2453 15.9301 13.6305 15.0001 14.3162 14.3144C15.0019 13.6287 15.932 13.2435 16.9017 13.2435C17.8715 13.2435 18.8015 13.6287 19.4872 14.3144C20.1729 15.0001 20.5581 15.9301 20.5581 16.8999Z" fill="#23AED2"/>
<path fill-rule="evenodd" clip-rule="evenodd" d="M34.8547 20.9583C35.4753 20.3376 36.3171 19.989 37.1948 19.989C38.0725 19.989 38.9143 20.3376 39.5349 20.9583C40.1556 21.5789 40.5042 22.4207 40.5042 23.2984C40.5042 24.1761 40.1556 25.0179 39.5349 25.6385L26.7374 38.436C26.4301 38.7433 26.0653 38.9871 25.6638 39.1534C25.2623 39.3197 24.8319 39.4053 24.3973 39.4053C23.9627 39.4053 23.5324 39.3197 23.1309 39.1534C22.7293 38.9871 22.3645 38.7433 22.0572 38.436C21.7499 38.1287 21.5061 37.7639 21.3398 37.3624C21.1735 36.9608 21.0879 36.5305 21.0879 36.0959C21.0879 35.6613 21.1735 35.2309 21.3398 34.8294C21.5061 34.4279 21.7499 34.0631 22.0572 33.7558L34.8547 20.9583Z" fill="#B9A9F8"/>
</svg>
